Coordinates
version=1
nRows=20
nColumns=38
inDegrees=no

Units are S.I. units (second, meters, Newtons, ...)
If the header above contains a line with 'inDegrees', this indicates whether rotational values are in degrees (yes) or radians (no).

endheader
time	pelvis_tilt	pelvis_list	pelvis_rotation	pelvis_tx	pelvis_ty	pelvis_tz	hip_flexion_r	hip_adduction_r	hip_rotation_r	knee_angle_r	ankle_angle_r	subtalar_angle_r	mtp_angle_r	hip_flexion_l	hip_adduction_l	hip_rotation_l	knee_angle_l	ankle_angle_l	subtalar_angle_l	mtp_angle_l	lumbar_extension	lumbar_bending	lumbar_rotation	arm_flex_r	arm_add_r	arm_rot_r	elbow_flex_r	pro_sup_r	wrist_flex_r	wrist_dev_r	arm_flex_l	arm_add_l	arm_rot_l	elbow_flex_l	pro_sup_l	wrist_flex_l	wrist_dev_l
0	-2.85907	1.46414	-1.80802	0.682103	-0.422971	1.05612	-0.0315254	-0.0864645	-0.258104	0.439813	-0.164175	0	0	-0.167159	-0.047676	-0.296111	0.130104	-0.47387	0	0	-0.0907003	-0.00534795	0.0751716	-0.287369	-0.190438	-0.0273769	0.430508	1.39345	0	0	0.139384	-0.20145	0.58555	0.240293	1.5708	0	0
0.01	-2.8692	1.47399	-1.79968	0.680754	-0.420809	1.05357	-0.020405	-0.0874419	-0.26584	0.449427	-0.156212	0	0	-0.159186	-0.0517052	-0.317143	0.13354	-0.464047	0	0	-0.0573557	-0.00900277	0.101076	-0.31222	-0.190003	-0.0185734	0.440904	1.37721	0	0	0.0399156	-0.248161	0.434351	0.469048	1.5708	0	0
0.02	-2.98045	1.41447	-1.68706	0.680442	-0.426963	1.05617	-0.0450116	-0.0964053	-0.304995	0.542297	-0.144909	0	0	-0.158896	-0.0933901	-0.436392	0.302416	-0.414503	0	0	-0.164908	-0.00638881	0.0772505	-0.275724	-0.202993	-0.0184855	0.484596	1.39488	0	0	0.0378994	-0.256475	0.358037	0.555033	1.5708	0	0
0.03	-2.78768	1.51288	-1.88586	0.680419	-0.418773	1.05339	0.0188662	-0.0797293	-0.242842	0.440716	-0.166614	0	0	-0.119972	-0.0520513	-0.301257	0.12897	-0.466962	0	0	-0.034756	0.0131898	0.0490459	-0.281395	-0.217618	0.0198344	0.466546	1.42269	0	0	0.194518	-0.133628	0.630589	0.0710196	1.5708	0	0
0.04	-2.85946	1.47127	-1.80851	0.681573	-0.422033	1.05556	-0.0263755	-0.0846474	-0.253054	0.436891	-0.164475	0	0	-0.161065	-0.0483942	-0.295448	0.129324	-0.471375	0	0	-0.0788681	0.000554488	0.0790477	-0.288585	-0.204842	-0.0198228	0.493237	1.43336	0	0	0.135814	-0.253639	0.699166	0.392156	1.5708	0	0
0.05	-2.9125	1.43917	-1.75265	0.681839	-0.424757	1.05734	-0.0619473	-0.0846482	-0.258219	0.432161	-0.165024	0	0	-0.193257	-0.0490317	-0.294766	0.130524	-0.472262	0	0	-0.123315	-0.00392508	0.0855534	-0.282395	-0.202881	-0.0416867	0.525047	1.47024	0	0	0.128993	-0.275343	0.643431	0.486328	1.5708	0	0
0.06	-2.64143	1.50682	-2.02818	0.682014	-0.417441	1.0513	0.0153469	-0.091588	-0.255141	0.446734	-0.153418	0	0	-0.122586	-0.0452051	-0.304471	0.132259	-0.465404	0	0	0.0048349	-0.0153237	0.11953	-0.325867	-0.18948	-0.0518996	0.518582	1.50286	0	0	0.0538724	-0.279775	0.531896	0.572325	1.5708	0	0
0.07	-2.77405	1.49466	-1.89619	0.681482	-0.418934	1.05272	-0.000834504	-0.0870725	-0.252253	0.442434	-0.156232	0	0	-0.137504	-0.0483747	-0.304584	0.131851	-0.464875	0	0	-0.0150589	-0.0109655	0.126538	-0.322706	-0.194822	-0.0598677	0.549235	1.52918	0	0	0.0656063	-0.279912	0.533261	0.604114	1.5708	0	0
0.08	-2.76768	1.4814	-1.89705	0.682531	-0.421604	1.05568	-0.0157986	-0.0877505	-0.246189	0.432735	-0.165219	0	0	-0.146436	-0.0435209	-0.284585	0.130352	-0.476738	0	0	-0.0501027	-0.00429225	0.107254	-0.307853	-0.198763	-0.0867261	0.596599	1.5708	0	0	0.172553	-0.29214	0.804032	0.521711	1.5708	0	0
0.09	-2.72538	1.50113	-1.94191	0.681405	-0.418742	1.05284	0.00587879	-0.0875081	-0.251149	0.440175	-0.158997	0	0	-0.127947	-0.0474812	-0.299336	0.133997	-0.466937	0	0	-0.00595836	-0.012214	0.128275	-0.325765	-0.197206	-0.0809679	0.614485	1.5708	0	0	0.0669889	-0.291565	0.531731	0.679941	1.5708	0	0
0.1	-2.72234	1.49797	-1.94451	0.681648	-0.418906	1.05276	0.00331679	-0.0889109	-0.252008	0.44087	-0.157907	0	0	-0.130068	-0.0470196	-0.301421	0.13604	-0.46615	0	0	-0.00475043	-0.0176407	0.138779	-0.330779	-0.198574	-0.0814681	0.650936	1.5708	0	0	0.0717182	-0.297776	0.531741	0.724631	1.5708	0	0
0.11	-2.73139	1.49595	-1.93758	0.682046	-0.419165	1.05282	0.00210245	-0.0885041	-0.247755	0.441413	-0.157219	0	0	-0.132257	-0.0469728	-0.302493	0.136537	-0.465562	0	0	-0.00926722	-0.0209599	0.141422	-0.329615	-0.203059	-0.079398	0.693881	1.5708	0	0	0.0685997	-0.305951	0.517631	0.780948	1.5708	0	0
0.12	-2.73479	1.49576	-1.9351	0.682289	-0.419286	1.05291	0.00240043	-0.0877477	-0.244485	0.441573	-0.15697	0	0	-0.132163	-0.0472853	-0.302479	0.137431	-0.465247	0	0	-0.0185621	-0.0239885	0.128467	-0.31926	-0.21297	-0.0635805	0.741423	1.5708	0	0	0.0468921	-0.312002	0.463282	0.855	1.5708	0	0
0.13	-2.72799	1.49704	-1.94106	0.682351	-0.419272	1.05294	0.00403162	-0.0873855	-0.243848	0.441595	-0.157439	0	0	-0.12978	-0.0476543	-0.301271	0.138989	-0.465266	0	0	-0.0153357	-0.0261817	0.132355	-0.323103	-0.218965	-0.0609122	0.79168	1.5708	0	0	0.0451023	-0.317245	0.454137	0.909257	1.5708	0	0
0.14	-2.71218	1.49934	-1.95619	0.682384	-0.419182	1.05291	0.00710429	-0.0873633	-0.242972	0.442031	-0.157799	0	0	-0.126049	-0.0477464	-0.300546	0.140742	-0.465263	0	0	-0.00986356	-0.028274	0.137819	-0.328864	-0.225312	-0.0600201	0.845879	1.5708	0	0	0.0455798	-0.322564	0.450272	0.962332	1.5708	0	0
0.15	-2.69418	1.50204	-1.97411	0.682469	-0.419031	1.05288	0.0107549	-0.0871786	-0.240624	0.442839	-0.158193	0	0	-0.122061	-0.0478661	-0.300105	0.142412	-0.465152	0	0	-0.00459538	-0.0301518	0.142435	-0.333972	-0.232614	-0.0590928	0.903303	1.5708	0	0	0.0459202	-0.327402	0.445314	1.01626	1.5708	0	0
0.16	-2.68299	1.5045	-1.98509	0.682546	-0.418884	1.05291	0.013712	-0.0863635	-0.237577	0.443195	-0.158691	0	0	-0.11849	-0.0484482	-0.299402	0.14406	-0.465029	0	0	-0.0012484	-0.0316481	0.144122	-0.336879	-0.241501	-0.056186	0.962902	1.5708	0	0	0.0450121	-0.331524	0.436275	1.07174	1.5708	0	0
0.17	-2.67333	1.5062	-1.99462	0.682652	-0.418714	1.05292	0.0159466	-0.0857793	-0.234982	0.443878	-0.15886	0	0	-0.11571	-0.0488872	-0.299317	0.145643	-0.464781	0	0	-0.000471716	-0.0339985	0.142442	-0.33634	-0.251685	-0.0498618	1.02368	1.5708	0	0	0.0415713	-0.335196	0.421095	1.12999	1.5708	0	0
0.18	-2.6658	1.50731	-2.00157	0.682674	-0.41857	1.05301	0.0171753	-0.0852805	-0.232872	0.44365	-0.159062	0	0	-0.113554	-0.0490162	-0.29846	0.146761	-0.464956	0	0	0.000444581	-0.036201	0.141946	-0.335701	-0.26213	-0.0440883	1.08414	1.5708	0	0	0.0426124	-0.338752	0.413042	1.18266	1.5708	0	0
0.19	-2.663	1.5078	-2.00405	0.682736	-0.418502	1.05313	0.0180127	-0.0848253	-0.23074	0.444029	-0.159089	0	0	-0.112179	-0.0493505	-0.298112	0.14837	-0.464896	0	0	-0.00121386	-0.038565	0.138523	-0.33051	-0.274024	-0.0353146	1.14384	1.5708	0	0	0.0418168	-0.341224	0.399484	1.23605	1.5708	0	0
